#Comment line ignore any data following # character 
#Hierarchical Translation and Rotation (.htr) file 
[Header]	
#Header keywords are followed by a single value 
FileType HTR		#Single word string
DataType HTRS		#Translation followed by rotation and scale data
FileVersion 1		#integer
NumSegments 64		#integer
NumFrames 3		#integer
DataFrameRate 30		#integer, data frame rate in this file
EulerRotationOrder ZYX
CalibrationUnits mm
RotationUnits Degrees
GlobalAxisofGravity Y
BoneLengthAxis Y
ScaleFactor 1.00
[SegmentNames&Hierarchy]
#CHILD	PARENT
Pinger_Root GLOBAL
Pelvis Pinger_Root
L_Hip Pelvis
R_Hip Pelvis
Rear_Leg01 Pelvis
Spine1 Pelvis
L_Leg01 L_Hip
L_Leg02 L_Leg01
L_Leg03 L_Leg02
L_Foot L_Leg03
L_Toe1_01 L_Foot
L_Toe2_01 L_Foot
L_Toe3_01 L_Foot
planeAlignerLeft L_Foot
L_Toe1_02 L_Toe1_01
L_Toe1_03 L_Toe1_02
L_Toe2_02 L_Toe2_01
L_Toe2_03 L_Toe2_02
L_Toe3_02 L_Toe3_01
L_Toe3_03 L_Toe3_02
planeLockWeightLeft planeAlignerLeft
R_Leg01 R_Hip
R_Leg02 R_Leg01
R_Leg03 R_Leg02
R_Foot R_Leg03
planeAlignerRight R_Foot
R_Toe1_01 R_Foot
R_Toe2_01 R_Foot
R_Toe3_01 R_Foot
planeLockWeightRight planeAlignerRight
R_Toe1_02 R_Toe1_01
R_Toe1_03 R_Toe1_02
R_Toe2_02 R_Toe2_01
R_Toe2_03 R_Toe2_02
R_Toe3_02 R_Toe3_01
R_Toe3_03 R_Toe3_02
Rear_Leg02 Rear_Leg01
Rear_Leg03 Rear_Leg02
Rear_Leg04 Rear_Leg03
Rear_Foot Rear_Leg04
planeAlignerCenter Rear_Foot
Rear_Toe1_01 Rear_Foot
Rear_Toe2_01 Rear_Foot
Rear_Toe3_01 Rear_Foot
planeLockWeightCenter planeAlignerCenter
Rear_Toe1_02 Rear_Toe1_01
Rear_Toe1_03 Rear_Toe1_02
Rear_Toe2_02 Rear_Toe2_01
Rear_Toe2_03 Rear_Toe2_02
Rear_Toe3_02 Rear_Toe3_01
Rear_Toe3_03 Rear_Toe3_02
Back_Bone Spine1
Head Spine1
Motor_Bone Back_Bone
Ping_Mechanism Back_Bone
BN_LookIK Head
bottomMouth Head
L_Mouth01 Head
L_mouthFront Head
mouthGun Head
R_Mouth01 Head
R_mouthFront Head
TopMouth Head
weapon_bone Head
[BasePosition]
#SegmentName Tx, Ty, Tz, Rx, Ry, Rz, BoneLength
Pinger_Root 0.000000 0.000000 0.000000 -90.000000 0.000000 0.000000 10.000000 
Pelvis 0.000000 0.000000 0.000000 0.000000 0.000000 0.000000 10.000000 
L_Hip 0.000000 0.000000 0.000000 0.000000 0.000000 0.000000 10.000000 
R_Hip 0.000000 0.000000 0.000000 0.000000 0.000000 0.000000 10.000000 
Rear_Leg01 0.000000 0.000000 0.000000 0.000000 0.000000 0.000000 10.000000 
Spine1 0.000000 0.000000 0.000000 0.000000 0.000000 0.000000 10.000000 
L_Leg01 0.000000 0.000000 0.000000 0.000000 0.000000 0.000000 10.000000 
L_Leg02 0.000000 0.000000 0.000000 0.000000 0.000000 0.000000 10.000000 
L_Leg03 0.000000 0.000000 0.000000 0.000000 0.000000 0.000000 10.000000 
L_Foot 0.000000 0.000000 0.000000 0.000000 0.000000 0.000000 10.000000 
L_Toe1_01 0.000000 0.000000 0.000000 0.000000 0.000000 0.000000 10.000000 
L_Toe2_01 0.000000 0.000000 0.000000 0.000000 0.000000 0.000000 10.000000 
L_Toe3_01 0.000000 0.000000 0.000000 0.000000 0.000000 0.000000 10.000000 
planeAlignerLeft 0.000000 0.000000 0.000000 0.000000 0.000000 0.000000 10.000000 
L_Toe1_02 0.000000 0.000000 0.000000 0.000000 0.000000 0.000000 10.000000 
L_Toe1_03 0.000000 0.000000 0.000000 0.000000 0.000000 0.000000 10.000000 
L_Toe2_02 0.000000 0.000000 0.000000 0.000000 0.000000 0.000000 10.000000 
L_Toe2_03 0.000000 0.000000 0.000000 0.000000 0.000000 0.000000 10.000000 
L_Toe3_02 0.000000 0.000000 0.000000 0.000000 0.000000 0.000000 10.000000 
L_Toe3_03 0.000000 0.000000 0.000000 0.000000 0.000000 0.000000 10.000000 
planeLockWeightLeft 0.000000 0.000000 0.000000 0.000000 0.000000 0.000000 10.000000 
R_Leg01 0.000000 0.000000 0.000000 0.000000 0.000000 0.000000 10.000000 
R_Leg02 0.000000 0.000000 0.000000 0.000000 0.000000 0.000000 10.000000 
R_Leg03 0.000000 0.000000 0.000000 0.000000 0.000000 0.000000 10.000000 
R_Foot 0.000000 0.000000 0.000000 0.000000 0.000000 0.000000 10.000000 
planeAlignerRight 0.000000 0.000000 0.000000 0.000000 0.000000 0.000000 10.000000 
R_Toe1_01 0.000000 0.000000 0.000000 0.000000 0.000000 0.000000 10.000000 
R_Toe2_01 0.000000 0.000000 0.000000 0.000000 0.000000 0.000000 10.000000 
R_Toe3_01 0.000000 0.000000 0.000000 0.000000 0.000000 0.000000 10.000000 
planeLockWeightRight 0.000000 0.000000 0.000000 0.000000 0.000000 0.000000 10.000000 
R_Toe1_02 0.000000 0.000000 0.000000 0.000000 0.000000 0.000000 10.000000 
R_Toe1_03 0.000000 0.000000 0.000000 0.000000 0.000000 0.000000 10.000000 
R_Toe2_02 0.000000 0.000000 0.000000 0.000000 0.000000 0.000000 10.000000 
R_Toe2_03 0.000000 0.000000 0.000000 0.000000 0.000000 0.000000 10.000000 
R_Toe3_02 0.000000 0.000000 0.000000 0.000000 0.000000 0.000000 10.000000 
R_Toe3_03 0.000000 0.000000 0.000000 0.000000 0.000000 0.000000 10.000000 
Rear_Leg02 0.000000 0.000000 0.000000 0.000000 0.000000 0.000000 10.000000 
Rear_Leg03 0.000000 0.000000 0.000000 0.000000 0.000000 0.000000 10.000000 
Rear_Leg04 0.000000 0.000000 0.000000 0.000000 0.000000 0.000000 10.000000 
Rear_Foot 0.000000 0.000000 0.000000 0.000000 0.000000 0.000000 10.000000 
planeAlignerCenter 0.000000 0.000000 0.000000 0.000000 0.000000 0.000000 10.000000 
Rear_Toe1_01 0.000000 0.000000 0.000000 0.000000 0.000000 0.000000 10.000000 
Rear_Toe2_01 0.000000 0.000000 0.000000 0.000000 0.000000 0.000000 10.000000 
Rear_Toe3_01 0.000000 0.000000 0.000000 0.000000 0.000000 0.000000 10.000000 
planeLockWeightCenter 0.000000 0.000000 0.000000 0.000000 0.000000 0.000000 10.000000 
Rear_Toe1_02 0.000000 0.000000 0.000000 0.000000 0.000000 0.000000 10.000000 
Rear_Toe1_03 0.000000 0.000000 0.000000 0.000000 0.000000 0.000000 10.000000 
Rear_Toe2_02 0.000000 0.000000 0.000000 0.000000 0.000000 0.000000 10.000000 
Rear_Toe2_03 0.000000 0.000000 0.000000 0.000000 0.000000 0.000000 10.000000 
Rear_Toe3_02 0.000000 0.000000 0.000000 0.000000 0.000000 0.000000 10.000000 
Rear_Toe3_03 0.000000 0.000000 0.000000 0.000000 0.000000 0.000000 10.000000 
Back_Bone 0.000000 0.000000 0.000000 0.000000 0.000000 0.000000 10.000000 
Head 0.000000 0.000000 0.000000 0.000000 0.000000 0.000000 10.000000 
Motor_Bone 0.000000 0.000000 0.000000 0.000000 0.000000 0.000000 10.000000 
Ping_Mechanism 0.000000 0.000000 0.000000 0.000000 0.000000 0.000000 10.000000 
BN_LookIK 0.000000 0.000000 0.000000 0.000000 0.000000 0.000000 10.000000 
bottomMouth 0.000000 0.000000 0.000000 0.000000 0.000000 0.000000 10.000000 
L_Mouth01 0.000000 0.000000 0.000000 0.000000 0.000000 0.000000 10.000000 
L_mouthFront 0.000000 0.000000 0.000000 0.000000 0.000000 0.000000 10.000000 
mouthGun 0.000000 0.000000 0.000000 0.000000 0.000000 0.000000 10.000000 
R_Mouth01 0.000000 0.000000 0.000000 0.000000 0.000000 0.000000 10.000000 
R_mouthFront 0.000000 0.000000 0.000000 0.000000 0.000000 0.000000 10.000000 
TopMouth 0.000000 0.000000 0.000000 0.000000 0.000000 0.000000 10.000000 
weapon_bone 0.000000 0.000000 0.000000 0.000000 0.000000 0.000000 10.000000 
#Beginning of Data. Separated by tabs
#Fr	Tx	Ty	Tz	Rx	Ry	Rz	SF
[Pinger_Root]
106 0.000000 0.000000 0.000000 -0.000075 -0.000000 -0.000020 0.000000
107 0.000000 0.000000 0.000000 -0.000075 -0.000000 -0.000020 0.000000
108 0.000000 0.000000 0.000000 -0.000075 -0.000000 -0.000020 0.000000
[Pelvis]
106 732.226074 3402.551025 3869.064941 -65.653145 -66.964478 77.149147 5204.149414
107 734.216125 3544.579346 3689.755127 -66.733986 -63.414490 78.756805 5168.888672
108 734.878784 3704.969727 3442.427490 -67.819481 -59.034657 80.264153 5110.494629
[L_Hip]
106 5.766392 125.831482 872.656799 -178.253311 -81.787758 87.381340 881.701050
107 5.766392 125.831482 872.656799 -178.253342 -81.787758 87.381340 881.701050
108 5.766392 125.831482 872.656799 -178.253311 -81.787712 87.381248 881.701050
[R_Hip]
106 5.765438 125.836372 -872.654907 -1.725095 81.783485 87.369766 881.699829
107 5.765438 125.836372 -872.654907 -1.724872 81.783455 87.369682 881.699829
108 5.765438 125.836372 -872.654907 -1.724658 81.783386 87.369484 881.699829
[Rear_Leg01]
106 -192.298416 -925.602966 -0.001907 141.279358 7.893835 -139.349991 945.367432
107 -192.298416 -925.602966 -0.001907 132.815369 9.448389 -139.541718 945.367432
108 -192.298416 -925.602966 -0.001907 123.479752 11.986485 -140.475525 945.367432
[Spine1]
106 290.604584 5.007505 0.000477 0.392054 -2.838407 11.143941 290.647736
107 290.604584 5.007505 0.000477 -0.292767 -2.747835 10.998355 290.647736
108 290.604584 5.007505 0.000477 -1.277475 -1.528395 18.028502 290.647736
[L_Leg01]
106 761.932007 -0.002384 -0.069261 132.717529 -32.049969 -106.040497 761.932068
107 761.932007 -0.002384 -0.069261 134.786621 -35.182362 -108.318535 761.932068
108 761.932007 -0.002384 -0.069261 137.618408 -39.290150 -111.597260 761.932068
[L_Leg02]
106 1441.140503 -0.000954 -0.000715 2.883672 -0.435382 -139.412216 1441.140503
107 1441.140503 -0.000954 -0.000715 3.433644 -0.509968 -144.301285 1441.140503
108 1441.140503 -0.000954 -0.000715 4.241443 -0.639991 -150.842743 1441.140503
[L_Leg03]
106 1686.963989 -0.000715 -0.000954 -0.010555 0.002117 112.676514 1686.963989
107 1686.963989 -0.000715 -0.000954 -0.011407 0.002317 112.964661 1686.963989
108 1686.963989 -0.000715 -0.000954 -0.011405 0.002327 113.065475 1686.963989
[L_Foot]
106 3041.570068 -30.715107 11.297464 17.093317 11.576637 114.540634 3041.746094
107 3041.570068 -30.715107 11.297464 17.980885 10.823380 118.848732 3041.746094
108 3041.570068 -30.715107 11.297464 18.884970 9.706205 124.552834 3041.746094
[L_Toe1_01]
106 -188.216690 -224.732346 -21.137953 103.250328 -2.552254 -178.580292 293.899567
107 -188.216690 -224.732346 -21.137953 103.245277 -2.527381 -178.596695 293.899567
108 -188.216690 -224.732346 -21.137953 103.240227 -2.502521 -178.613022 293.899567
[L_Toe2_01]
106 200.746536 -219.926590 148.838394 -88.134697 -19.603359 -51.518990 332.896027
107 200.746536 -219.926590 148.838394 -88.160095 -19.571091 -51.473839 332.896027
108 200.746536 -219.926590 148.838394 -88.185394 -19.538786 -51.428806 332.896027
[L_Toe3_01]
106 188.832520 -219.859131 -191.078659 -116.136124 7.389946 -67.289253 347.140900
107 188.832520 -219.859131 -191.078659 -116.130417 7.368215 -67.269257 347.140900
108 188.832520 -219.859131 -191.078659 -116.124680 7.346459 -67.249329 347.140900
[planeAlignerLeft]
106 0.812531 -811.448792 -0.314951 0.000000 -90.000000 -90.001900 811.449280
107 0.812531 -811.448792 -0.314951 0.000000 -90.000000 -90.001900 811.449280
108 0.812531 -811.448792 -0.314951 0.000000 -90.000000 -90.001900 811.449280
[L_Toe1_02]
106 413.761139 0.000477 0.000000 0.001420 -21.434067 0.001420 413.761139
107 413.761139 0.000477 0.000000 0.001421 -21.393806 0.001421 413.761139
108 413.761139 0.000477 0.000000 0.001421 -21.353497 0.001421 413.761139
[L_Toe1_03]
106 464.317322 0.000358 -0.000089 0.027644 85.133530 0.027644 464.317322
107 464.317322 0.000358 -0.000089 0.028530 85.284874 0.028530 464.317322
108 464.317322 0.000358 -0.000089 0.029476 85.436150 0.029476 464.317322
[L_Toe2_02]
106 342.235809 -0.000477 0.000238 -0.002452 -52.653530 -0.002452 342.235809
107 342.235809 -0.000477 0.000238 -0.002455 -52.317181 -0.002455 342.235809
108 342.235809 -0.000477 0.000238 -0.002455 -52.201672 -0.002455 342.235809
[L_Toe2_03]
106 420.210846 -0.000715 0.000000 0.007199 50.646248 -0.000228 420.210846
107 420.210846 -0.000715 0.000000 0.007167 50.203457 -0.000270 420.210846
108 420.210846 -0.000715 0.000000 0.007156 50.045383 -0.000285 420.210846
[L_Toe3_02]
106 329.270111 0.000954 0.000000 -0.002369 -67.411385 -0.002369 329.270111
107 329.270111 0.000954 0.000000 -0.002370 -67.256966 -0.002370 329.270111
108 329.270111 0.000954 0.000000 -0.002370 -67.102615 -0.002370 329.270111
[L_Toe3_03]
106 439.137451 -0.001907 0.000954 -0.001318 68.614578 -0.004877 439.137451
107 439.137451 -0.001907 0.000954 -0.001263 68.225853 -0.004823 439.137451
108 439.137451 -0.001907 0.000954 -0.001242 68.082748 -0.004804 439.137451
[planeLockWeightLeft]
106 -0.000954 0.000238 -0.000305 -0.011826 -0.004376 0.005620 0.001029
107 -0.000954 0.000238 -0.000305 -0.011826 -0.004376 0.005620 0.001029
108 -0.000954 0.000238 -0.000305 -0.011826 -0.004376 0.005620 0.001029
[R_Leg01]
106 761.455627 -0.001907 -0.000358 109.718674 3.512890 69.311432 761.455688
107 761.455627 -0.001907 -0.000358 111.296036 -10.003397 63.561905 761.455688
108 761.455627 -0.001907 -0.000358 113.825241 -19.763430 57.620289 761.455688
[R_Leg02]
106 1441.140625 0.000000 -0.000238 1.914019 -0.766135 -114.616875 1441.140625
107 1441.140625 0.000000 -0.000238 2.097597 -1.105370 -125.464699 1441.140625
108 1441.140625 0.000000 -0.000238 2.020418 -1.362001 -131.749268 1441.140625
[R_Leg03]
106 1686.963989 0.000954 0.001431 -0.038861 0.010411 99.961525 1686.963989
107 1686.963989 0.000954 0.001431 -0.063776 0.012308 93.257584 1686.963989
108 1686.963989 0.000954 0.001431 -0.092702 0.013765 85.389038 1686.963989
[R_Foot]
106 3041.560059 -30.531288 -11.204481 -0.994175 -66.684402 82.879707 3041.734131
107 3041.560059 -30.531288 -11.204481 -16.143339 -67.249832 87.434341 3041.734131
108 3041.560059 -30.531288 -11.204481 -20.340374 -67.515671 91.786514 3041.734131
[planeAlignerRight]
106 -0.635147 -812.270569 -0.364304 0.000000 -89.960434 -90.005180 812.270874
107 -0.635147 -812.270569 -0.364304 0.000000 -89.960434 -90.005180 812.270874
108 -0.635147 -812.270569 -0.364304 0.000000 -89.960434 -90.005180 812.270874
[R_Toe1_01]
106 -188.383347 -224.864899 21.052242 91.118294 0.373675 -154.811646 294.101532
107 -188.383347 -224.864899 21.052242 91.418182 -0.004557 -157.452835 294.101532
108 -188.383347 -224.864899 21.052242 91.876053 -0.365731 -154.793930 294.101532
[R_Toe2_01]
106 200.637817 -220.002121 -148.787384 -104.080986 8.963317 -55.846516 332.857574
107 200.637817 -220.002121 -148.787384 -104.590897 7.950511 -58.188744 332.857574
108 200.637817 -220.002121 -148.787384 -105.716759 5.845673 -64.895035 332.857574
[R_Toe3_01]
106 188.606735 -220.092957 191.126343 -70.679626 -14.516639 -58.596481 347.192566
107 188.606735 -220.092957 191.126343 -70.487259 -14.690281 -60.652020 347.192566
108 188.606735 -220.092957 191.126343 -69.809097 -13.330012 -66.504730 347.192566
[planeLockWeightRight]
106 -0.000477 0.000000 0.000000 -0.011823 -0.004379 -0.000027 0.000477
107 -0.000477 0.000000 0.000000 -0.011823 -0.004379 -0.000027 0.000477
108 -0.000477 0.000000 0.000000 -0.011823 -0.004379 -0.000027 0.000477
[R_Toe1_02]
106 413.762085 0.000477 -0.000119 0.001404 -23.385221 0.001404 413.762085
107 413.762085 0.000477 -0.000119 0.001456 -17.627254 0.001456 413.762085
108 413.762085 0.000477 -0.000119 0.001512 -11.869382 0.001512 413.762085
[R_Toe1_03]
106 464.317810 0.000000 0.001088 0.010112 76.669838 0.010112 464.317810
107 464.317810 0.000000 0.001088 -179.994064 81.433746 -179.990555 464.317810
108 464.317810 0.000000 0.001088 -179.999115 65.217598 -179.995544 464.317810
[R_Toe2_02]
106 342.234741 -0.000954 0.000238 -0.002336 -77.817535 -0.002336 342.234741
107 342.234741 -0.000954 0.000238 -0.002331 -80.622940 -0.002331 342.234741
108 342.234741 -0.000954 0.000238 -0.005838 -80.882622 -0.005838 342.234741
[R_Toe2_03]
106 420.210846 0.000715 -0.000268 -179.993484 76.122025 -179.997009 420.210846
107 420.210846 0.000715 -0.000268 -179.996216 55.886005 -179.999878 420.210846
108 420.210846 0.000715 -0.000268 -179.996674 42.349518 179.999512 420.210846
[R_Toe3_02]
106 329.270355 -0.000477 -0.000954 0.001178 -81.035469 0.001178 329.270355
107 329.270355 -0.000477 -0.000954 0.001175 -84.132484 0.001175 329.270355
108 329.270355 -0.000477 -0.000954 0.001175 -84.699913 0.001175 329.270355
[R_Toe3_03]
106 439.137939 0.000238 0.001431 -179.996857 76.568672 -179.993332 439.137939
107 439.137939 0.000238 0.001431 -179.995499 56.901714 -179.988205 439.137939
108 439.137939 0.000238 0.001431 -179.997971 43.098286 -179.990356 439.137939
[Rear_Leg02]
106 1162.777710 -0.029802 0.005960 0.519315 10.634274 -49.589279 1162.777710
107 1162.777710 -0.029802 0.005960 3.561984 9.319750 -47.233070 1162.777710
108 1162.777710 -0.029802 0.005960 5.900045 8.191999 -48.508297 1162.777710
[Rear_Leg03]
106 607.192505 -0.013351 -0.073195 0.008810 0.003103 51.194000 607.192505
107 607.192505 -0.013351 -0.073195 0.008811 0.003100 51.226952 607.192505
108 607.192505 -0.013351 -0.073195 0.006653 -0.001457 52.911221 607.192505
[Rear_Leg04]
106 995.874512 -0.020504 -0.011921 -0.033699 -0.013468 35.357895 995.874573
107 995.874512 -0.020504 -0.011921 -0.033706 -0.013451 35.415051 995.874573
108 995.874512 -0.020504 -0.011921 -0.035627 -0.017340 38.093742 995.874573
[Rear_Foot]
106 3096.176270 -0.067472 -0.041425 166.138733 56.586136 6.728006 3096.176270
107 3096.176270 -0.067472 -0.041425 165.800720 56.719635 4.674799 3096.176270
108 3096.176270 -0.067472 -0.041425 164.685272 58.065453 -0.833101 3096.176270
[planeAlignerCenter]
106 0.350077 0.966311 -838.790894 0.000009 0.000003 -179.999985 838.791565
107 0.350077 0.966311 -838.790894 0.000009 0.000003 -179.999985 838.791565
108 0.350077 0.966311 -838.790894 0.000009 0.000003 -179.999985 838.791565
[Rear_Toe1_01]
106 0.653352 83.966492 -371.173737 -0.978781 25.185070 87.308960 380.553192
107 0.653352 83.966492 -371.173737 -0.933863 20.020849 87.553734 380.553192
108 0.653352 83.966492 -371.173737 -0.898620 16.490408 87.806923 380.553192
[Rear_Toe2_01]
106 178.200760 -294.826019 -362.060547 6.417862 48.613964 -60.892838 499.765686
107 178.200760 -294.826019 -362.060547 5.441470 46.772419 -62.572544 499.765686
108 178.200760 -294.826019 -362.060547 4.467937 45.210274 -64.312599 499.765686
[Rear_Toe3_01]
106 -153.359680 -308.780914 -362.060852 -1.151200 48.643314 -112.090576 499.952881
107 -153.359680 -308.780914 -362.060852 -0.733209 46.780525 -111.417091 499.952881
108 -153.359680 -308.780914 -362.060852 -0.310977 45.264065 -110.721825 499.952881
[planeLockWeightCenter]
106 -0.000062 0.000238 0.000000 -0.011814 -0.004373 -0.000015 0.000246
107 -0.000062 0.000238 0.000000 -0.011814 -0.004373 -0.000015 0.000246
108 -0.000062 0.000238 0.000000 -0.011814 -0.004373 -0.000015 0.000246
[Rear_Toe1_02]
106 379.707825 0.194073 0.000477 0.001334 -33.232323 0.001334 379.707855
107 379.707825 0.194073 0.000477 -0.002642 -33.154881 -0.002642 379.707855
108 379.707825 0.194073 0.000477 -0.006682 -31.147568 -0.006682 379.707855
[Rear_Toe1_03]
106 500.129700 0.165701 0.000119 -0.004308 63.546455 -0.000716 500.129761
107 500.129700 0.165701 0.000119 -0.013125 85.571236 -0.016624 500.129761
108 500.129700 0.165701 0.000119 -179.993011 77.390137 -179.996521 500.129761
[Rear_Toe2_02]
106 340.494507 0.000238 -0.000954 179.998825 -88.657539 179.998825 340.494507
107 340.494507 0.000238 -0.000954 179.998825 -87.132767 179.998825 340.494507
108 340.494507 0.000238 -0.000954 179.998825 -86.072655 179.998825 340.494507
[Rear_Toe2_03]
106 433.103577 0.000000 0.000238 -179.995880 61.296753 -179.999481 433.103546
107 433.103577 0.000000 0.000238 -179.996292 54.368626 -179.999969 433.103546
108 433.103577 0.000000 0.000238 -179.996521 47.903843 179.999741 433.103546
[Rear_Toe3_02]
106 340.494141 -0.000358 -0.000477 -179.914154 -87.549835 179.922287 340.494171
107 340.494141 -0.000358 -0.000477 -179.994171 -86.445374 -179.994171 340.494171
108 340.494141 -0.000358 -0.000477 -179.994171 -85.647110 -179.994171 340.494171
[Rear_Toe3_03]
106 433.103577 0.001431 -0.000238 179.992294 56.384975 179.999603 433.103546
107 433.103577 0.001431 -0.000238 179.992828 50.421932 -179.999741 433.103546
108 433.103577 0.001431 -0.000238 179.993164 44.853092 -179.999268 433.103546
[Back_Bone]
106 1312.175781 -701.934692 0.000954 -2.230070 -2.885227 -86.597641 1488.125488
107 1312.175781 -701.934692 0.000954 -2.082495 -2.998929 -87.051819 1488.125488
108 1312.175781 -701.934692 0.000954 -1.925388 -3.135409 -87.670616 1488.125488
[Head]
106 1406.159424 809.709290 0.001431 -2.737859 -5.897500 18.083784 1622.625488
107 1406.159424 809.709290 0.001431 -2.242017 -0.800413 19.341797 1622.625488
108 1406.159424 809.709290 0.001431 -1.557123 1.949844 20.068171 1622.625488
[Motor_Bone]
106 1158.364380 -417.834747 0.000477 -1.839531 -4.530638 -85.819916 1231.419434
107 1158.364380 -417.834747 0.000477 -1.733886 -5.953061 -82.712982 1231.419434
108 1158.364380 -417.834747 0.000477 -1.691846 -7.417913 -79.245171 1231.419434
[Ping_Mechanism]
106 1173.864502 -426.728241 16.918463 0.000103 -0.000053 82.120995 1249.136108
107 1174.317749 -427.126404 17.135931 0.000103 -0.000053 82.120995 1249.701050
108 1176.044678 -422.866241 17.514654 0.000103 -0.000053 82.120995 1249.881470
[BN_LookIK]
106 193.241119 1380.371704 -0.002861 0.000000 89.965736 -31.038179 1393.832153
107 193.241119 1380.371704 -0.002861 0.000000 89.965736 -31.038179 1393.832153
108 193.241119 1380.371704 -0.002861 0.000000 89.965736 -31.038179 1393.832153
[bottomMouth]
106 -435.092926 615.759399 -0.000954 -0.000022 0.000016 73.527184 753.966492
107 -435.092926 615.759399 -0.000954 -0.000022 0.000016 73.527184 753.966492
108 -435.092926 615.759399 -0.000954 -0.000022 0.000016 73.527184 753.966492
[L_Mouth01]
106 554.440979 7.658243 838.222046 150.204178 23.759130 109.605339 1005.027161
107 554.440979 7.658243 838.222046 150.204178 23.759130 109.605339 1005.027161
108 554.440979 7.658243 838.222046 150.204178 23.759130 109.605339 1005.027161
[L_mouthFront]
106 551.629089 934.514771 339.150421 0.000081 2.804060 79.119301 1136.941284
107 551.629089 934.514771 339.150421 0.000081 2.804060 79.119301 1136.941284
108 551.629089 934.514771 339.150421 0.000081 2.804060 79.119301 1136.941284
[mouthGun]
106 55.332661 1627.420898 0.000000 0.000023 0.000009 -11.038128 1628.361328
107 55.332661 1627.420898 0.000000 0.000023 0.000009 -11.038128 1628.361328
108 55.332661 1627.420898 0.000000 0.000023 0.000009 -11.038128 1628.361328
[R_Mouth01]
106 554.442383 7.659197 -838.223938 29.795891 -23.759109 109.605331 1005.029541
107 554.442383 7.659197 -838.223938 29.795891 -23.759109 109.605331 1005.029541
108 554.442383 7.659197 -838.223938 29.795891 -23.759109 109.605331 1005.029541
[R_mouthFront]
106 551.629089 934.514282 -339.151367 0.000029 -2.803930 79.119133 1136.941162
107 551.629089 934.514282 -339.151367 0.000029 -2.803930 79.119133 1136.941162
108 551.629089 934.514282 -339.151367 0.000029 -2.803930 79.119133 1136.941162
[TopMouth]
106 461.269867 -56.106091 -0.008583 -0.000059 -0.000268 92.025169 464.669525
107 461.269867 -56.106091 -0.008583 -0.000059 -0.000268 92.025169 464.669525
108 461.269867 -56.106091 -0.008583 -0.000059 -0.000268 92.025169 464.669525
[weapon_bone]
106 -987.239868 1448.372803 0.001431 0.000000 89.965736 -31.038221 1752.833740
107 -987.239868 1448.372803 0.001431 0.000000 89.965736 -31.038221 1752.833740
108 -987.239868 1448.372803 0.001431 0.000000 89.965736 -31.038221 1752.833740
